<svg xmlns="http://www.w3.org/2000/svg" viewBox="0 0 1920 1080" preserveAspectRatio="xMidYMid slice">
  <defs>
    <linearGradient id="bg" x1="0%" y1="0%" x2="100%" y2="100%">
      <stop offset="0%" stop-color="#5B8DEF"/>
      <stop offset="100%" stop-color="#2C5BB8"/>
    </linearGradient>
    <radialGradient id="glow" cx="50%" cy="40%" r="55%">
      <stop offset="0%" stop-color="#ffffff" stop-opacity="0.22"/>
      <stop offset="100%" stop-color="#ffffff" stop-opacity="0"/>
    </radialGradient>
  </defs>
  <rect width="1920" height="1080" fill="url(#bg)"/>
  <rect width="1920" height="1080" fill="url(#glow)"/>
  <g stroke="#ffffff" stroke-opacity="0.08" stroke-width="1">
    <line x1="0" y1="180"  x2="1920" y2="180"/>
    <line x1="0" y1="360"  x2="1920" y2="360"/>
    <line x1="0" y1="540"  x2="1920" y2="540"/>
    <line x1="0" y1="720"  x2="1920" y2="720"/>
    <line x1="0" y1="900"  x2="1920" y2="900"/>
  </g>
  <line x1="120" y1="540" x2="1800" y2="540" stroke="#ffffff" stroke-opacity="0.35" stroke-width="2"/>
  <g>
    <circle cx="260"  cy="540" r="10" fill="#ffffff" fill-opacity="0.85"/>
    <circle cx="540"  cy="540" r="10" fill="#ffffff" fill-opacity="0.85"/>
    <circle cx="820"  cy="540" r="14" fill="#ffffff"/>
    <circle cx="1100" cy="540" r="10" fill="#ffffff" fill-opacity="0.85"/>
    <circle cx="1380" cy="540" r="10" fill="#ffffff" fill-opacity="0.85"/>
    <circle cx="1660" cy="540" r="10" fill="#ffffff" fill-opacity="0.85"/>
  </g>
  <g fill="#ffffff" fill-opacity="0.05">
    <rect x="220"  y="220" width="120" height="64" rx="6"/>
    <rect x="780"  y="200" width="120" height="64" rx="6"/>
    <rect x="1340" y="240" width="120" height="64" rx="6"/>
    <rect x="380"  y="800" width="120" height="64" rx="6"/>
    <rect x="940"  y="780" width="120" height="64" rx="6"/>
    <rect x="1500" y="820" width="120" height="64" rx="6"/>
  </g>
</svg>
